<svg xmlns="http://www.w3.org/2000/svg" viewBox="0 0 800 600" width="800" height="600">
  <defs>
    <linearGradient id="g" x1="0" y1="0" x2="1" y2="1">
      <stop offset="0%" stop-color="#0f1024"/>
      <stop offset="50%" stop-color="#1a1333"/>
      <stop offset="100%" stop-color="#0c0d1a"/>
    </linearGradient>
    <filter id="blur"><feGaussianBlur stdDeviation="12"/></filter>
  </defs>
  <rect width="100%" height="100%" fill="url(#g)"/>
  <g fill="#7dd3fc" opacity="0.07" filter="url(#blur)">
    <path d="M120,320c60-40,120-80,210-50 40,15,70,45,110,40 35-5,65-35,90-70 20-28,40-55,70-65 20-7,52-7,70,5 -24,3-38,18-46,33 22,8,40,22,52,41 -30-7-52-4-70,9 -20,14-30,35-44,54-36,49-86,76-148,68-55-7-94-41-145-54-58-15-106,1-149,33 0,0-10-28-10-44z"/>
  </g>
</svg>
